<svg focusable="false" aria-hidden="true" viewBox="0 0 36 32" xmlns="http://www.w3.org/2000/svg">
  <path fill-rule="evenodd" clip-rule="evenodd" d="M32.707 2.707a1 1 0 00-1.414-1.414L26.1 6.487C23.665 5.03 20.913 4 18 4 9.9 4 3.05 11.965.79 14.917a1.769 1.769 0 000 2.166c1.252 1.634 3.909 4.803 7.405 7.308l-4.902 4.902a1 1 0 101.415 1.414l28-28zM9.63 22.957l3.48-3.48a6 6 0 018.367-8.367l3.16-3.16C22.541 6.766 20.293 6 18 6c-3.405 0-6.71 1.688-9.56 3.925C5.704 12.073 3.59 14.567 2.48 16c1.11 1.433 3.224 3.927 5.96 6.075.389.305.786.6 1.19.881zm14.274-8.033l-6.98 6.98a6 6 0 006.98-6.98zM18 26c-1.468 0-2.918-.314-4.321-.85l-1.531 1.531C13.982 27.491 15.95 28 18 28c8.1 0 14.95-7.965 17.21-10.917a1.769 1.769 0 000-2.166c-1.012-1.32-2.941-3.644-5.49-5.809l-1.419 1.42c2.377 1.996 4.212 4.171 5.218 5.472-1.108 1.433-3.223 3.927-5.96 6.075C24.71 24.312 21.406 26 18 26z" fill="#000"/>
</svg>
