<svg focusable="false" aria-hidden="false" viewBox="0 0 36 32" xmlns="http://www.w3.org/2000/svg">
  <path fill-rule="evenodd" clip-rule="evenodd" d="M27.56 9.925c2.736 2.148 4.85 4.642 5.96 6.075-1.11 1.433-3.224 3.927-5.96 6.075C24.71 24.312 21.405 26 18 26c-3.405 0-6.71-1.688-9.56-3.925C5.704 19.927 3.59 17.433 2.48 16c1.11-1.433 3.224-3.927 5.96-6.075C11.29 7.688 14.595 6 18 6c3.405 0 6.71 1.688 9.56 3.925zm7.65 4.992a1.769 1.769 0 010 2.166C32.95 20.035 26.1 28 18 28 9.9 28 3.05 20.035.79 17.083a1.769 1.769 0 010-2.166C3.05 11.965 9.9 4 18 4c8.1 0 14.95 7.965 17.21 10.917zM18 22a6 6 0 100-12 6 6 0 000 12z" fill="#000"/>
</svg>
