<svg width="160" height="26" viewBox="0 0 160 26" fill="none" xmlns="http://www.w3.org/2000/svg">
  <path d="M66.8787 4.15C69.3891 1.7 72.4017 0.5 75.9163 0.5C79.431 0.5 82.41 1.7 84.8703 4.08333C87.3305 6.46667 88.569 9.4 88.569 12.9C88.569 16.4 87.3305 19.4 84.8368 21.85C82.3766 24.3 79.364 25.5 75.8661 25.5C72.3682 25.5 69.3389 24.3 66.8619 21.8833C64.3849 19.4667 63.1464 16.5 63.1464 13C63.1464 9.5 64.3849 6.56667 66.8787 4.15ZM69.3891 12.9667C69.3724 14.75 70.0418 16.4667 71.2469 17.7667C73.5732 20.3 77.523 20.4667 80.0669 18.15C80.2008 18.0333 80.318 17.9 80.4519 17.7667C81.6736 16.4667 82.3431 14.75 82.3096 12.9667C82.3431 11.2 81.6736 9.48333 80.4519 8.2C78.1255 5.66667 74.1757 5.5 71.6318 7.81667C71.4979 7.93333 71.3808 8.06667 71.2469 8.2C70.0251 9.5 69.3557 11.2 69.3891 12.9667ZM15.8326 21.9333C15.8159 20.9667 16.1841 20.0167 16.887 19.3333C17.5565 18.6333 18.477 18.25 19.431 18.25C19.6318 18.25 19.8159 18.2667 20.0167 18.3C20.2008 17.3833 20.2845 16.4333 20.2845 15.5V0.916667H14.1088V15.6167C14.1088 18 12.954 19.8 10.1255 19.8C7.51464 19.8 6.17573 18.0667 6.17573 15.5V0.916667H0V15.5833C0 21.65 3.2636 25.4833 10.0586 25.4833C12.6862 25.4833 14.8117 24.9333 16.4184 23.8833C16.0335 23.3167 15.8326 22.6333 15.8326 21.9333ZM39.3975 23.35C37.7573 24.7667 35.4477 25.4833 32.5021 25.4833C27.4979 25.4833 24.2008 23.6333 22.6276 19.9167L27.6987 17.3167C28.6025 19.3 30.2092 20.2833 32.5523 20.2833C34.5105 20.2833 35.682 19.5167 35.682 18.2667C35.682 17.1833 34.7782 16.5667 31.8996 15.7833C26.4268 14.3 23.6318 12.1 23.6318 8.05C23.5816 5.95 24.5356 3.93333 26.2092 2.63333C27.9498 1.23333 30.0251 0.516667 32.4854 0.516667C36.954 0.516667 40.1004 2.61667 41.4561 5.83333L36.4519 8.55C35.6485 6.63333 34.2761 5.66667 32.318 5.66667C30.795 5.66667 29.7071 6.5 29.7071 7.71667C29.7071 8.73333 30.4268 9.45 33.0042 10.2C36.1172 11.1 38.3431 12.1167 39.749 13.2667C41.1381 14.3833 41.8577 15.9333 41.8577 17.9C41.8745 20.1 41.0544 21.9333 39.3975 23.35ZM49.9079 6.46667H43.0126V0.916667H62.8954V6.45H56.0335V25.1333H49.9079V6.46667ZM97.1046 25.15H90.9791V0.916667H100.954C103.715 0.916667 105.925 1.56667 107.565 2.9C109.205 4.23333 110.042 6.15 110.042 8.71667C110.042 12.4333 108.084 14.6833 105.188 15.7167L110.594 25.15H103.95L99.0795 16.6333H97.0879V25.15H97.1046ZM97.1046 11.4333H100.485C102.695 11.4333 103.9 10.5333 103.9 8.93333C103.9 7.3 102.845 6.18333 100.452 6.18333H97.1046V11.4333ZM112.787 25.15V0.916667H118.946V11.3167L126.46 0.916667H133.657L125.305 12.4333L134.243 25.15H126.628L118.929 13.6667V25.15H112.787ZM143.849 8V9.21667H138.778V0.916667H140.084V8H143.849ZM147.816 0.916667H149.356L152.736 9.21667H151.364L150.611 7.26667H146.527L145.757 9.21667H144.418L147.816 0.916667ZM146.996 6.1H150.159L148.569 2.16667L146.996 6.1ZM153.757 0.916667H156.937C157.741 0.916667 158.393 1.1 158.879 1.5C159.364 1.88333 159.649 2.48333 159.615 3.1C159.615 3.3 159.582 3.48333 159.531 3.66667C159.331 4.2 158.929 4.65 158.41 4.88333C158.912 5.01667 159.331 5.3 159.632 5.71667C159.866 6.06667 159.983 6.46667 160 6.88333C160 8.28333 158.962 9.2 157.038 9.2H153.741L153.757 0.916667ZM155.063 4.41667H156.703C157.774 4.41667 158.326 3.91667 158.326 3.23333C158.326 2.55 157.841 2.08333 156.787 2.08333H155.079L155.063 4.41667ZM155.063 8.03333H157.071C158.126 8.03333 158.695 7.53333 158.695 6.78333C158.695 6.06667 158.126 5.56667 156.987 5.56667H155.046L155.063 8.03333Z" fill="#000"/>
</svg>
