<svg width="24" height="24" viewBox="0 0 24 24" xmlns="http://www.w3.org/2000/svg">
    <g fill="#000">
        <path d="M12 16.45c-.672 0-1.234.562-1.234 1.23 0 .672.562 1.234 1.234 1.234.645 0 1.234-.562 1.203-1.203A1.2 1.2 0 0012 16.449zm0 0"/>
        <path d="M23.414 20.82a4.211 4.211 0 00.012-4.265l-7.727-13.38a4.194 4.194 0 00-3.695-2.144c-1.547 0-2.93.805-3.695 2.14L.574 16.567a4.238 4.238 0 00.016 4.286 4.216 4.216 0 003.683 2.117h15.434c1.543 0 2.93-.805 3.707-2.149zm-1.676-.968a2.327 2.327 0 01-2.039 1.18H4.27c-.84 0-1.593-.43-2.011-1.157a2.334 2.334 0 01-.008-2.352l7.738-13.39a2.286 2.286 0 012.016-1.168c.844 0 1.598.437 2.02 1.172l7.73 13.39c.414.723.41 1.59-.016 2.325zm0 0"/>
        <path d="M11.695 7.79c-.59.167-.953.698-.953 1.347l.082 1.172.254 4.425a.903.903 0 00.922.871c.504 0 .898-.39.922-.898 0-.309 0-.59.031-.898.055-.954.113-1.907.168-2.856.027-.617.082-1.234.113-1.851 0-.223-.03-.418-.113-.618a1.242 1.242 0 00-1.426-.695zm0 0"/>
    </g>
</svg>
